HIERARCHY
ROOT Pelvis
{
	OFFSET 0.000000 0.941512 0.000000
	CHANNELS 6 Xposition Yposition Zposition Zrotation Yrotation Xrotation 
	JOINT Pelvis_L_Hip
	{
		OFFSET 0.000000 0.000000 0.000000
		CHANNELS 3 Zrotation Yrotation Xrotation
		JOINT L_Hip
		{
			OFFSET 0.062321 -0.080322 -0.016990
			CHANNELS 3 Zrotation Yrotation Xrotation
			JOINT L_Knee
			{
				OFFSET 0.093051 -0.381305 -0.029784
				CHANNELS 3 Zrotation Yrotation Xrotation
				JOINT L_Ankle
				{
					OFFSET -0.010371 -0.431000 -0.033614
					CHANNELS 3 Zrotation Yrotation Xrotation
					End Site #name: L_Foot
					{
						OFFSET 0.069299 -0.038670 0.119418
					}
				}
			}
		}
	}
	JOINT Pelvis_R_Hip
	{
		OFFSET 0.000000 0.000000 0.000000
		CHANNELS 3 Zrotation Yrotation Xrotation
		JOINT R_Hip
		{
			OFFSET -0.055334 -0.094904 -0.002373
			CHANNELS 3 Zrotation Yrotation Xrotation
			JOINT R_Knee
			{
				OFFSET -0.064207 -0.384370 -0.019592
				CHANNELS 3 Zrotation Yrotation Xrotation
				JOINT R_Ankle
				{
					OFFSET 0.025418 -0.419734 -0.065953
					CHANNELS 3 Zrotation Yrotation Xrotation
					End Site #name: R_Foot
					{
						OFFSET -0.057233 -0.039888 0.132134
					}
				}
			}
		}
	}
	JOINT Pelvis_Spine1
	{
		OFFSET 0.000000 0.000000 0.000000
		CHANNELS 3 Zrotation Yrotation Xrotation
		JOINT Spine1
		{
			OFFSET -0.005562 0.124093 -0.043360
			CHANNELS 3 Zrotation Yrotation Xrotation
			JOINT Spine2
			{
				OFFSET 0.012244 0.139499 0.029894
				CHANNELS 3 Zrotation Yrotation Xrotation
				JOINT Spine3
				{
					OFFSET -0.002556 0.056561 0.009225
					CHANNELS 3 Zrotation Yrotation Xrotation
					JOINT Spine3_Neck
					{
						OFFSET 0.000000 0.000000 0.000000
						CHANNELS 3 Zrotation Yrotation Xrotation
						JOINT Neck
						{
							OFFSET -0.005205 0.217920 -0.024551
							CHANNELS 3 Zrotation Yrotation Xrotation
							End Site #name: Head
							{
								OFFSET 0.002365 0.091850 0.046637
							}
						}
					}
					JOINT Spine3_L_Collar
					{
						OFFSET 0.000000 0.000000 0.000000
						CHANNELS 3 Zrotation Yrotation Xrotation
						JOINT L_Collar
						{
							OFFSET 0.072225 0.116603 -0.009480
							CHANNELS 3 Zrotation Yrotation Xrotation
							JOINT L_Shoulder
							{
								OFFSET 0.115937 -0.058643 -0.021018
								CHANNELS 3 Zrotation Yrotation Xrotation
								JOINT L_Elbow
								{
									OFFSET 0.021994 -0.254722 -0.024492
									CHANNELS 3 Zrotation Yrotation Xrotation
									End Site #name: L_Wrist
									{
										OFFSET 0.048810 -0.240214 0.103329
									}
								}
							}
						}
					}
					JOINT Spine3_R_Collar
					{
						OFFSET 0.000000 0.000000 0.000000
						CHANNELS 3 Zrotation Yrotation Xrotation
						JOINT R_Collar
						{
							OFFSET -0.073372 0.120704 -0.024611
							CHANNELS 3 Zrotation Yrotation Xrotation
							JOINT R_Shoulder
							{
								OFFSET -0.108089 -0.054969 -0.020504
								CHANNELS 3 Zrotation Yrotation Xrotation
								JOINT R_Elbow
								{
									OFFSET -0.033684 -0.260739 0.009889
									CHANNELS 3 Zrotation Yrotation Xrotation
									End Site #name: R_Wrist
									{
										OFFSET -0.067980 -0.232763 0.118463
									}
								}
							}
						}
					}
				}
			}
		}
	}
}
MOTION
Frames: 11
Frame Time: 0.041667
0.000000 0.945845 0.000000 -1.331189 -8.176193 -6.509530 0.000000 0.000000 0.000000 -6.407327 -5.482342 -19.932316 -1.746975 0.348536 26.296627 -0.044951 0.796328 0.560920 0.000000 0.000000 0.000000 3.716394 -1.765368 8.424861 6.817021 0.714576 50.123115 12.694751 -0.481836 26.199360 0.000000 0.000000 0.000000 0.583421 -0.890204 10.090485 -1.957869 0.133916 -3.048568 1.720681 5.046729 6.011001 0.000000 0.000000 0.000000 -5.456382 3.312054 11.557534 0.000000 0.000000 0.000000 12.753343 -4.814667 -0.716356 -8.802516 0.820721 -0.739534 -3.052306 -0.274216 4.546419 0.000000 0.000000 0.000000 -22.029756 18.103771 -9.781571 15.420344 -1.045485 5.623485 1.871517 5.354776 -13.214785 
-0.002816 0.958055 0.058215 -1.464849 -7.625561 -5.797314 0.000000 0.000000 0.000000 -8.248080 -4.374373 -15.584878 0.457422 -0.392873 24.662017 0.878530 -0.902366 -2.147517 0.000000 0.000000 0.000000 2.811170 0.664368 -4.165235 10.902896 -1.914270 61.928199 2.982435 -13.653905 20.704938 0.000000 0.000000 0.000000 2.011912 -1.360519 10.394642 -2.835763 0.165800 -4.387818 1.032392 4.517514 6.300485 0.000000 0.000000 0.000000 -5.602466 3.423317 11.758140 0.000000 0.000000 0.000000 12.704166 -5.356540 -1.080056 -9.388495 0.693375 -1.878351 -2.875938 0.162982 6.194338 0.000000 0.000000 0.000000 -22.439721 17.299173 -9.096717 14.937105 -1.173421 6.120309 2.460305 5.457307 -12.398260 
-0.006749 0.974389 0.115764 -2.013261 -6.603000 -6.092473 0.000000 0.000000 0.000000 -9.485521 -2.232662 -8.629936 3.370760 -1.171311 19.802485 0.539141 -3.943033 -3.140079 0.000000 0.000000 0.000000 3.748161 2.513746 -13.111887 9.890887 -1.457165 63.679232 -0.345528 -17.740543 17.687505 0.000000 0.000000 0.000000 2.878674 -1.757692 11.500960 -2.917047 0.148741 -4.776348 1.250814 3.988617 6.269071 0.000000 0.000000 0.000000 -5.509685 3.359860 12.136067 0.000000 0.000000 0.000000 13.175884 -5.743371 -1.251101 -11.367656 0.769172 -2.432044 -2.718838 -0.268129 3.991522 0.000000 0.000000 0.000000 -22.984668 16.390490 -8.362413 14.631852 -1.367285 6.885656 1.914581 4.875311 -11.787970 
-0.011169 0.986023 0.171241 -2.657618 -5.531706 -5.988580 0.000000 0.000000 0.000000 -10.184231 0.130605 -1.644603 6.328167 -1.516617 13.268042 -0.255083 -7.142119 -3.312827 0.000000 0.000000 0.000000 5.827930 4.412884 -20.530636 5.334210 1.594740 58.616915 0.667360 -12.610202 13.274176 0.000000 0.000000 0.000000 3.659520 -2.156251 12.589457 -3.041850 0.130843 -5.235049 1.620945 3.489837 6.271544 0.000000 0.000000 0.000000 -4.760091 2.832620 11.822031 0.000000 0.000000 0.000000 14.326915 -5.527971 -0.920736 -12.998647 0.762263 -3.152967 -3.689226 -1.718052 -0.497519 0.000000 0.000000 0.000000 -23.678584 15.397319 -7.549184 15.143634 -1.183875 6.117342 1.108500 3.494055 -9.252382 
-0.015729 0.987466 0.226958 -3.430138 -4.275427 -5.768477 0.000000 0.000000 0.000000 -9.308762 2.167050 4.527895 7.591463 -1.299055 7.716219 -1.068865 -10.682676 -3.548153 0.000000 0.000000 0.000000 8.061470 5.740751 -24.487811 -0.145703 3.855073 45.343211 1.904535 -7.884837 11.085172 0.000000 0.000000 0.000000 4.604699 -2.577155 13.130589 -3.018255 0.168996 -4.587048 1.907992 2.850603 6.050173 0.000000 0.000000 0.000000 -3.815309 2.180442 11.210232 0.000000 0.000000 0.000000 15.439003 -5.939066 -1.024967 -13.530365 0.678464 -3.728720 -4.540795 -3.418643 -5.664210 0.000000 0.000000 0.000000 -24.136432 14.868256 -7.126799 15.787842 -0.780248 4.576423 -0.075571 1.858625 -6.366638 
-0.019492 0.978608 0.284389 -3.333846 -2.910445 -5.392579 0.000000 0.000000 0.000000 -8.488417 4.212955 10.942973 7.506887 -0.715719 1.316667 -1.857729 -14.119327 -3.722982 0.000000 0.000000 0.000000 7.847733 6.020356 -25.971528 -2.317156 2.866512 27.155116 3.456237 -6.417549 13.355367 0.000000 0.000000 0.000000 4.649122 -2.681824 13.451397 -2.826318 0.154482 -4.423234 2.469708 2.232039 5.649621 0.000000 0.000000 0.000000 -3.061045 1.674162 11.334602 0.000000 0.000000 0.000000 16.738082 -7.158959 -1.695388 -13.660289 0.552558 -4.334816 -4.917554 -4.403745 -8.620168 0.000000 0.000000 0.000000 -24.001439 14.403433 -6.771453 16.183183 -0.502102 3.574386 -1.055179 0.668527 -4.248174 
-0.023010 0.961534 0.344072 -2.115110 -1.918967 -4.686209 0.000000 0.000000 0.000000 -8.017236 5.363905 14.652274 6.056924 -0.481803 0.030906 -0.884465 -16.501997 -6.125659 0.000000 0.000000 0.000000 6.684543 5.830888 -26.367992 -3.054442 1.404520 10.135410 4.334049 -3.863620 12.937515 0.000000 0.000000 0.000000 3.459732 -2.285246 13.221365 -2.527202 0.099092 -4.684353 3.162149 1.900237 5.392566 0.000000 0.000000 0.000000 -2.753194 1.464689 11.628700 0.000000 0.000000 0.000000 18.130656 -8.347391 -2.382447 -13.419925 0.299144 -5.465295 -5.092829 -4.731401 -9.462937 0.000000 0.000000 0.000000 -23.438796 13.910461 -6.395149 16.198986 -0.517728 3.643860 -1.436711 0.541429 -4.549133 
-0.028634 0.940930 0.405985 -0.696822 -1.384481 -4.004990 0.000000 0.000000 0.000000 -7.957974 6.433817 17.855646 5.114244 -0.427881 0.352262 0.886372 -17.908085 -9.307822 0.000000 0.000000 0.000000 5.826854 5.879843 -27.462417 -3.739496 0.646135 0.639321 4.673258 -4.255048 14.116720 0.000000 0.000000 0.000000 1.862975 -1.691936 12.547739 -2.261148 0.073521 -4.571872 3.591991 1.615263 5.366957 0.000000 0.000000 0.000000 -2.425798 1.255670 11.275714 0.000000 0.000000 0.000000 19.414082 -8.973610 -2.723774 -12.647470 0.000848 -6.763904 -4.832237 -4.777963 -10.156661 0.000000 0.000000 0.000000 -22.795248 13.110906 -5.739243 16.619943 -0.506101 3.594703 -1.596744 1.020601 -6.534108 
-0.034374 0.923154 0.472099 -0.613654 -0.729732 -4.084049 0.000000 0.000000 0.000000 -7.398922 7.228875 20.753287 6.099613 -0.749893 3.486243 2.708521 -18.431475 -12.205668 0.000000 0.000000 0.000000 5.837495 5.986422 -28.055681 -2.939778 0.540399 0.905155 3.949076 -8.069352 16.554060 0.000000 0.000000 0.000000 2.477049 -1.962122 12.996864 -2.406176 0.052010 -5.159502 3.431483 1.585192 5.613770 0.000000 0.000000 0.000000 -2.151222 1.060844 10.490246 0.000000 0.000000 0.000000 19.799732 -9.386448 -2.944097 -11.199997 -0.232992 -7.680840 -4.545481 -4.765717 -10.699458 0.000000 0.000000 0.000000 -22.491165 12.268510 -5.120653 16.964067 -0.644522 4.043573 -1.075179 1.965554 -8.681931 
-0.040835 0.915562 0.540805 -1.180793 -0.715487 -2.949999 0.000000 0.000000 0.000000 -6.807722 6.823524 19.983073 6.996531 -1.531384 11.381722 3.240864 -17.678255 -12.784957 0.000000 0.000000 0.000000 6.508405 6.862376 -31.172614 -1.616326 1.002662 9.743989 4.148122 -13.215721 23.714235 0.000000 0.000000 0.000000 4.082568 -2.328408 11.592363 -2.310860 0.057754 -4.889806 2.978416 1.824410 5.755934 0.000000 0.000000 0.000000 -2.139470 1.041580 10.299855 0.000000 0.000000 0.000000 18.568350 -8.816933 -2.607965 -10.082356 -0.395076 -8.358307 -3.546215 -4.228125 -10.773230 0.000000 0.000000 0.000000 -21.908258 12.187149 -5.128399 16.446265 -0.821756 4.679366 -0.562130 2.244061 -8.571230 
-0.050375 0.924359 0.610460 -1.785592 -2.128539 -2.801960 0.000000 0.000000 0.000000 -4.724525 5.251056 16.511745 3.842468 -1.695350 24.568879 -2.287095 -16.922949 -4.165417 0.000000 0.000000 0.000000 7.162540 7.363121 -32.149725 1.439756 0.792195 19.187567 2.680565 -12.903206 19.145266 0.000000 0.000000 0.000000 5.273284 -2.557808 10.719709 -2.229531 0.183268 -2.790200 2.437716 2.007285 5.261903 0.000000 0.000000 0.000000 -2.780006 1.484112 11.124123 0.000000 0.000000 0.000000 17.517233 -8.546686 -2.609636 -10.665897 -0.250565 -7.629500 -0.752851 -2.705143 -10.885669 0.000000 0.000000 0.000000 -21.998753 14.120264 -6.611649 16.754454 -0.775547 4.570756 -1.078198 1.147824 -5.935736 
